<svg version="1.1" xmlns="http://www.w3.org/2000/svg" style="display: block;" viewBox="0 0 2048 2048" width="1024" height="1024" preserveAspectRatio="none">
<path transform="translate(0,0)" fill="rgb(180,144,63)" d="M 1524.7 191.176 C 1529.93 190.385 1532.14 189.957 1536.79 192.356 C 1545.2 203.933 1519.93 217.718 1511.86 223.456 C 1501.32 230.938 1491.41 239.281 1482.25 248.4 C 1390.05 340.863 1388.68 509.873 1388.94 632.554 L 1389.04 756.027 C 1414.01 748.527 1438.79 739.858 1464.02 733.826 C 1538.9 715.922 1614.94 705.186 1692.06 710.745 C 1705.09 711.684 1718.93 710.641 1731.95 712.619 C 1741.02 713.997 1750.4 717.502 1759.43 719.337 C 1809.84 730.517 1860.84 746.726 1904.81 774.357 C 1910.99 778.242 1921.81 781.241 1924.36 788.564 C 1923.11 792.43 1924.16 790.694 1920.44 793.493 C 1915.73 794.68 1904.03 785.804 1899.03 783.074 C 1770.35 712.824 1618.58 714.663 1479.97 750.995 C 1448.27 759.303 1419.76 769.85 1388.86 779.68 C 1390.2 849.093 1389 924.102 1388.72 993.693 L 1388.93 1299.18 C 1389.11 1337.83 1389.03 1376.47 1388.7 1415.12 C 1388.64 1436.1 1387.85 1468.17 1390.54 1488.44 C 1393.02 1508.14 1400.78 1526.8 1413 1542.46 C 1440.9 1578.83 1475.97 1582.44 1517.96 1585.2 C 1523.19 1585.54 1521.78 1594.92 1520.54 1598.47 C 1516.27 1599.59 1488.4 1599.18 1481.42 1599.23 C 1413.93 1599.7 1346.12 1599.12 1278.59 1599.04 L 1188.52 1598.96 C 1179.75 1598.95 1160.54 1599.99 1153.43 1598.45 C 1150.09 1594.88 1148.93 1585.77 1154.3 1585.49 C 1202.47 1582.98 1240.58 1574.73 1266.69 1530.02 C 1285.21 1498.31 1281.86 1473.55 1282.46 1437.24 C 1283.08 1399.75 1281.96 1361.15 1282.33 1323.22 L 1282.66 828.324 C 1271.44 831.562 1243.38 850.356 1232.31 857.449 C 1062.64 966.086 923.499 1114.69 759.888 1231.53 C 756.478 1233.97 757.89 1309.14 757.906 1319.22 L 757.96 1462.5 C 758.001 1578.61 755.275 1715.08 659.812 1797.43 C 627.607 1825.21 584.502 1846.2 543.77 1858.04 C 534.94 1860.5 514.833 1868 506.099 1863.87 C 501.303 1861.61 502.941 1852.64 507.289 1850.04 C 652.658 1763.05 652.323 1590.01 651.969 1439.46 L 652.167 1299.3 C 648.007 1302.13 643.403 1304.63 638.947 1307.07 C 501.201 1382.71 334.859 1434.67 179.253 1386.18 C 154.244 1378.38 145.431 1355.73 166.338 1338.35 C 176.613 1329.81 206.508 1344.21 217.697 1346.76 C 358.155 1386.85 504.601 1334.65 628.347 1268.87 C 635.861 1264.88 644.821 1260.16 651.958 1255.19 L 651.995 787.362 L 651.983 633.818 C 652.123 558.722 666.647 460.367 568.355 440.212 C 558.188 438.127 528.644 440.71 523.2 435.676 C 521.405 430.429 521.194 426.611 523.001 421.307 C 531.471 418.702 627.826 420.132 641.106 420.171 L 780.255 420.537 C 813.956 420.87 848.536 419.238 882.37 420.396 C 886.408 420.534 889.067 420.752 891.75 423.292 C 892.963 428.049 892.999 428.702 892.521 433.591 C 885.886 441.88 862.687 436.93 848.839 439.518 C 822.125 444.01 801.116 456.59 784.125 477.576 C 756.346 511.888 757.837 548.29 757.861 590.268 L 757.917 654.997 L 757.933 881.8 L 757.949 1087.78 L 757.891 1139.78 C 757.757 1156.58 757.024 1172.46 759.22 1189.18 C 831.713 1134.66 898.569 1079.66 968.264 1021.89 C 1064.01 942.538 1170.41 853.607 1282.89 799.903 C 1283.79 742.233 1282.22 684.138 1282.56 626.008 C 1283.14 527.424 1281.12 418.22 1328.75 328.54 C 1371.19 248.636 1441.35 214.207 1524.7 191.176 z"/>
</svg>